<svg width="28" height="28" viewBox="0 0 28 28" fill="none" xmlns="http://www.w3.org/2000/svg">
<path d="M21.9108 14.7547C18.5472 14.7547 15.821 17.4584 15.821 20.7936C15.821 24.129 18.5472 26.8333 21.9108 26.8333C25.2738 26.8333 28 24.129 28 20.7936C28 17.4584 25.2738 14.7547 21.9108 14.7547ZM6.08952 14.755C2.72651 14.7553 0 17.4584 0 20.7939C0 24.129 2.72651 26.833 6.08952 26.833C9.45282 26.833 12.1793 24.129 12.1793 20.7939C12.1793 17.4584 9.45282 14.755 6.08923 14.755H6.08952ZM20.0895 7.20577C20.0895 10.541 17.3633 13.2455 14.0003 13.2455C10.6367 13.2455 7.91048 10.541 7.91048 7.20577C7.91048 3.87059 10.6367 1.16663 14.0003 1.16663C17.3633 1.16663 20.0892 3.87059 20.0892 7.20577H20.0895Z" fill="url(#paint0_radial_390_2911)"/>
<defs>
<radialGradient id="paint0_radial_390_2911" cx="0" cy="0" r="1" gradientUnits="userSpaceOnUse" gradientTransform="translate(14 15.194) scale(18.5536 17.0075)">
<stop stop-color="#FFB900"/>
<stop offset="0.6" stop-color="#F95D8F"/>
<stop offset="0.9991" stop-color="#F95353"/>
</radialGradient>
</defs>
</svg>
