<svg width="28" height="28" viewBox="0 0 28 28" fill="none" xmlns="http://www.w3.org/2000/svg">
<path d="M14.0048 0C11.1707 2.79417 11.1526 7.21583 14.1652 10.0158L18.2801 13.9977L14.4245 17.7287C15.5108 18.7846 16.2516 20.1266 16.5544 21.5873C16.8573 23.0479 16.7088 24.5625 16.1274 25.942L27.6641 14.7817C27.7706 14.6787 27.8551 14.5565 27.9127 14.422C27.9703 14.2875 28 14.1433 28 13.9977C28 13.852 27.9703 13.7079 27.9127 13.5733C27.8551 13.4388 27.7706 13.3166 27.6641 13.2137L14.0048 0ZM11.8967 2.03L0.335871 13.2148C0.229392 13.3178 0.144924 13.44 0.0872933 13.5745C0.0296628 13.709 0 13.8532 0 13.9988C0 14.1445 0.0296628 14.2886 0.0872933 14.4232C0.144924 14.5577 0.229392 14.6799 0.335871 14.7828C4.8946 19.18 9.44127 23.618 14 28C16.7678 25.319 16.8884 20.888 13.9035 18.0448L9.71865 13.9977L13.5779 10.2643C11.2648 7.9835 10.7281 4.75183 11.8967 2.03117V2.03Z" fill="#2684FF"/>
</svg>
