<svg width="28" height="28" viewBox="0 0 28 28" fill="none" xmlns="http://www.w3.org/2000/svg">
<path d="M13.9346 25.9184C14.0179 25.9695 14.113 25.9977 14.2104 26V25.998C14.2793 25.9974 14.3474 25.983 14.4108 25.9557C14.4741 25.9284 14.5315 25.8887 14.5795 25.8388L25.7629 14.5953C25.9206 14.4102 26 14.1979 26 13.9857C26 13.7735 25.9206 13.5353 25.7629 13.3761L14.5795 2.15963C14.4743 2.05352 14.3424 2.00047 14.2104 2.00047C14.1116 1.99618 14.0138 2.02157 13.9294 2.07343C13.845 2.12529 13.7777 2.20128 13.7361 2.29176C13.6567 2.45093 13.6835 2.66314 13.7887 2.82231L19.4067 10.6183L9.56878 6.58816C9.48941 6.56113 9.43681 6.5351 9.35843 6.5351C9.12029 6.5351 8.93674 6.69426 8.85737 6.90648C8.77799 7.1187 8.88315 7.35794 9.06771 7.49008L17.7189 12.6083L2.50118 13.4832C2.3652 13.4871 2.23626 13.5451 2.14242 13.6444C2.04858 13.7438 1.99743 13.8765 2.0001 14.0137C1.99871 14.1506 2.05028 14.2826 2.14386 14.3817C2.23743 14.4807 2.36563 14.5391 2.50118 14.5443L17.7189 15.4192L9.06771 20.5374C8.88315 20.6706 8.77799 20.9088 8.85737 21.121C8.88907 21.2297 8.95525 21.3249 9.04577 21.392C9.13629 21.4591 9.24613 21.4944 9.35843 21.4924C9.43681 21.4924 9.48941 21.4664 9.56878 21.4393L19.4067 17.4082L13.7887 25.1782C13.6567 25.3373 13.6567 25.5235 13.7361 25.7087C13.7829 25.795 13.8514 25.8673 13.9346 25.9184Z" fill="black"/>
</svg>
