<svg width="28" height="28" viewBox="0 0 28 28" fill="none" xmlns="http://www.w3.org/2000/svg">
<g clip-path="url(#clip0_390_2929)">
<path d="M5.89009 17.6444C5.89009 19.2667 4.57902 20.5778 2.95677 20.5778C1.33452 20.5778 0.0234375 19.2667 0.0234375 17.6444C0.0234375 16.0223 1.33452 14.7112 2.95688 14.7112H5.88998V17.6445L5.89009 17.6444ZM7.35681 17.6444C7.35681 16.0223 8.66789 14.7112 10.2901 14.7112C11.9124 14.7112 13.2235 16.0223 13.2235 17.6445V24.9778C13.2235 26.6 11.9124 27.9112 10.29 27.9112C8.668 27.9112 7.35681 26.6 7.35681 24.9778V17.6444Z" fill="#E01E5A"/>
<path d="M10.2889 5.86666C8.66666 5.86666 7.35547 4.55558 7.35547 2.93333C7.35547 1.31108 8.66677 0 10.2889 0C11.911 0 13.2222 1.31108 13.2222 2.93333V5.86677H10.2888L10.2889 5.86666ZM10.2889 7.35558C11.9112 7.35558 13.2222 8.66666 13.2222 10.2889C13.2222 11.9112 11.9112 13.2222 10.2888 13.2222H2.93344C1.31108 13.2222 0 11.9112 0 10.2888C0 8.66677 1.31108 7.35558 2.93333 7.35558H10.2889Z" fill="#36C5F0"/>
<path d="M22.0443 10.2889C22.0443 8.66666 23.3554 7.35547 24.9775 7.35547C26.5998 7.35547 27.911 8.66666 27.911 10.2889C27.911 11.9112 26.5998 13.2222 24.9775 13.2222H22.0443V10.2889ZM20.5776 10.2889C20.5776 11.9112 19.2664 13.2222 17.6442 13.2222C16.022 13.2222 14.7109 11.9112 14.7109 10.2888V2.93344C14.7109 1.31108 16.022 0 17.6442 0C19.2663 0 20.5775 1.31108 20.5775 2.93333V10.2888L20.5776 10.2889Z" fill="#2EB67D"/>
<path d="M17.6442 22.0446C19.2664 22.0446 20.5776 23.3556 20.5776 24.9778C20.5776 26.6 19.2664 27.9112 17.6442 27.9112C16.022 27.9112 14.7109 26.6 14.7109 24.9778V22.0446H17.6442ZM17.6442 20.5778C16.022 20.5778 14.7109 19.2667 14.7109 17.6444C14.7109 16.0223 16.022 14.7112 17.6443 14.7112H24.9997C26.622 14.7112 27.9332 16.0223 27.9332 17.6445C27.9332 19.2667 26.622 20.5778 24.9997 20.5778H17.6442Z" fill="#ECB22E"/>
</g>
<defs>
<clipPath id="clip0_390_2929">
<rect width="28" height="28" fill="white"/>
</clipPath>
</defs>
</svg>
